<svg xmlns="http://www.w3.org/2000/svg" version="1.1" xmlns:xlink="http://www.w3.org/1999/xlink" xmlns:svgjs="http://svgjs.dev/svgjs" width="1000" height="1000" viewBox="0 0 1000 1000"><rect width="1000" height="1000" fill="#31c48d"></rect><g transform="matrix(0.7,0,0,0.7,149.5757575757575,422.24829435766884)"><svg viewBox="0 0 396 88" data-background-color="#31c48d" preserveAspectRatio="xMidYMid meet" height="222" width="1000" xmlns="http://www.w3.org/2000/svg" xmlns:xlink="http://www.w3.org/1999/xlink"><g id="tight-bounds" transform="matrix(1,0,0,1,0.24000000000003752,0.029280431829135978)"><svg viewBox="0 0 395.5199999999999 87.94143907739273" height="87.94143907739273" width="395.5199999999999"><g><svg viewBox="0 0 397.4975999999999 88.38114627277969" height="87.94143907739273" width="395.5199999999999"><g><rect width="397.4975999999999" height="2.5282066143292807" x="0" y="45.362426609705075" fill="#ffffff" opacity="1" stroke-width="0" stroke="transparent" fill-opacity="1" class="rect-o-0" data-fill-palette-color="primary" rx="1%" id="o-0" data-palette-color="#ffffff"></rect></g><g><rect width="397.4975999999999" height="2.5282066143292807" x="0" y="51.19980418519834" fill="#ffffff" opacity="1" stroke-width="0" stroke="transparent" fill-opacity="1" class="rect-o-1" data-fill-palette-color="primary" rx="1%" id="o-1" data-palette-color="#ffffff"></rect></g><g transform="matrix(1,0,0,1,0.9887999999999693,60.346352721855574)"><svg viewBox="0 0 395.52 28.034793550924107" height="28.034793550924107" width="395.52"><g id="textblocktransform"><svg viewBox="0 0 395.52 28.034793550924107" height="28.034793550924107" width="395.52" id="textblock"><g><svg viewBox="0 0 395.52 28.034793550924107" height="28.034793550924107" width="395.52"><g transform="matrix(1,0,0,1,0,0)"><svg width="395.52" viewBox="4.449999809265137 -35.75 508.55999755859375 36.04999923706055" height="28.034793550924107" data-palette-color="#ffffff"><path d="M7.95 0L4.45 0 4.45-35.5 27.75-35.5 27.75-32.4 7.95-32.4 7.95-19.35 24.65-19.35 24.65-16.45 7.95-16.45 7.95 0ZM26.95 0L41.8-35.5 44.75-35.5 59.5 0 55.8 0 51.2-11.1 35.25-11.1 30.7 0 26.95 0ZM36-13.85L50.4-13.85 43.25-31.4 36-13.85ZM86.55-31.65L84.85-28.85Q84.1-29.7 83.1-30.38 82.1-31.05 80.85-31.55 79.6-32.05 78.17-32.35 76.75-32.65 75.15-32.65L75.15-32.65Q70.5-32.65 68.32-30.88 66.15-29.1 66.15-26.05L66.15-26.05Q66.15-23.95 67.17-22.75 68.2-21.55 70.4-20.8 72.6-20.05 76-19.25L76-19.25Q79.8-18.45 82.55-17.35 85.3-16.25 86.8-14.38 88.3-12.5 88.3-9.3L88.3-9.3Q88.3-6.85 87.35-5.05 86.4-3.25 84.7-2.05 83-0.85 80.65-0.28 78.3 0.3 75.5 0.3L75.5 0.3Q72.75 0.3 70.22-0.28 67.7-0.85 65.45-1.98 63.2-3.1 61.25-4.85L61.25-4.85 63-7.7Q63.95-6.7 65.27-5.83 66.6-4.95 68.22-4.25 69.85-3.55 71.72-3.18 73.6-2.8 75.6-2.8L75.6-2.8Q79.85-2.8 82.22-4.35 84.6-5.9 84.6-8.95L84.6-8.95Q84.6-11.15 83.4-12.48 82.2-13.8 79.8-14.65 77.4-15.5 73.9-16.3L73.9-16.3Q70.2-17.15 67.65-18.2 65.1-19.25 63.82-20.98 62.55-22.7 62.55-25.55L62.55-25.55Q62.55-28.85 64.17-31.13 65.8-33.4 68.65-34.58 71.5-35.75 75.2-35.75L75.2-35.75Q77.55-35.75 79.57-35.27 81.6-34.8 83.32-33.9 85.05-33 86.55-31.65L86.55-31.65ZM118.99-35.5L122.44-35.5 122.44 0 118.99 0 118.99-16.6 97.94-16.6 97.94 0 94.44 0 94.44-35.5 97.94-35.5 97.94-19.7 118.99-19.7 118.99-35.5ZM134.84 0L131.34 0 131.34-35.5 134.84-35.5 134.84 0ZM158.04 0.25L158.04 0.25Q154.29 0.25 151.24-1.25 148.19-2.75 145.99-5.33 143.79-7.9 142.59-11.13 141.39-14.35 141.39-17.75L141.39-17.75Q141.39-21.3 142.64-24.53 143.89-27.75 146.16-30.28 148.44-32.8 151.49-34.27 154.54-35.75 158.09-35.75L158.09-35.75Q161.84-35.75 164.89-34.2 167.94-32.65 170.11-30.05 172.29-27.45 173.49-24.25 174.69-21.05 174.69-17.7L174.69-17.7Q174.69-14.15 173.44-10.93 172.19-7.7 169.94-5.18 167.69-2.65 164.64-1.2 161.59 0.25 158.04 0.25ZM144.89-17.75L144.89-17.75Q144.89-14.85 145.84-12.18 146.79-9.5 148.54-7.43 150.29-5.35 152.71-4.13 155.14-2.9 158.04-2.9L158.04-2.9Q161.09-2.9 163.51-4.17 165.94-5.45 167.66-7.58 169.39-9.7 170.29-12.35 171.19-15 171.19-17.75L171.19-17.75Q171.19-20.65 170.24-23.3 169.29-25.95 167.51-28.05 165.74-30.15 163.34-31.35 160.94-32.55 158.04-32.55L158.04-32.55Q155.04-32.55 152.61-31.3 150.19-30.05 148.46-27.93 146.74-25.8 145.81-23.15 144.89-20.5 144.89-17.75ZM207.74 0L184.79-29.05 184.79 0 181.29 0 181.29-35.5 184.19-35.5 207.49-5.9 207.49-35.45 210.99-35.45 210.99 0 207.74 0ZM216.03 0L230.88-35.5 233.83-35.5 248.58 0 244.88 0 240.28-11.1 224.33-11.1 219.78 0 216.03 0ZM225.08-13.85L239.48-13.85 232.33-31.4 225.08-13.85ZM280.38-9.15L280.38-9.15Q280.38-6.5 279.03-4.42 277.68-2.35 275.41-1.18 273.13 0 270.43 0L270.43 0 253.68 0 253.68-35.5 270.78-35.5Q273.28-35.5 275.11-34.18 276.93-32.85 277.91-30.78 278.88-28.7 278.88-26.45L278.88-26.45Q278.88-23.8 277.53-21.55 276.18-19.3 273.78-18.2L273.78-18.2Q276.83-17.3 278.61-14.85 280.38-12.4 280.38-9.15ZM276.88-9.75L276.88-9.75Q276.88-11.55 276.08-13.08 275.28-14.6 273.91-15.55 272.53-16.5 270.78-16.5L270.78-16.5 257.18-16.5 257.18-3.05 270.43-3.05Q272.23-3.05 273.68-4 275.13-4.95 276.01-6.48 276.88-8 276.88-9.75ZM269.68-32.45L257.18-32.45 257.18-19.35 269.38-19.35Q271.13-19.35 272.48-20.28 273.83-21.2 274.63-22.7 275.43-24.2 275.43-25.9L275.43-25.9Q275.43-27.7 274.68-29.18 273.93-30.65 272.63-31.55 271.33-32.45 269.68-32.45L269.68-32.45ZM310.98 0L286.98 0 286.98-35.5 290.48-35.5 290.48-3.1 310.98-3.1 310.98 0ZM306.83-35.5L310.68-35.5 322.28-16.4 333.98-35.5 337.78-35.5 324.03-13.2 324.03 0 320.53 0 320.53-13.3 306.83-35.5ZM368.22 0.25L368.22 0.25Q364.67 0.25 361.62-1.28 358.57-2.8 356.32-5.4 354.07-8 352.85-11.2 351.62-14.4 351.62-17.8L351.62-17.8Q351.62-21.4 352.85-24.63 354.07-27.85 356.27-30.35 358.47-32.85 361.47-34.3 364.47-35.75 368.02-35.75L368.02-35.75Q373.27-35.75 376.57-33.6 379.87-31.45 381.57-28L381.57-28 378.87-26.2Q377.17-29.5 374.32-31.05 371.47-32.6 367.97-32.6L367.97-32.6Q365.02-32.6 362.65-31.35 360.27-30.1 358.57-28 356.87-25.9 356-23.25 355.12-20.6 355.12-17.75L355.12-17.75Q355.12-14.75 356.12-12.08 357.12-9.4 358.97-7.33 360.82-5.25 363.25-4.08 365.67-2.9 368.47-2.9L368.47-2.9Q371.72-2.9 374.62-4.53 377.52-6.15 380.17-9.55L380.17-9.55 380.17-5.85Q375.12 0.25 368.22 0.25ZM379.62 0L379.62-14.75 371.72-14.75 371.72-17.45 382.57-17.45 382.57 0 379.62 0ZM393.27 0L389.77 0 389.77-35.5 404.77-35.5Q407.07-35.5 408.97-34.55 410.87-33.6 412.29-31.98 413.72-30.35 414.49-28.38 415.27-26.4 415.27-24.35L415.27-24.35Q415.27-21.8 414.29-19.55 413.32-17.3 411.54-15.75 409.77-14.2 407.37-13.7L407.37-13.7 416.07 0 412.12 0 403.77-13.1 393.27-13.1 393.27 0ZM393.27-32.4L393.27-16.2 404.87-16.2Q406.97-16.2 408.52-17.35 410.07-18.5 410.92-20.38 411.77-22.25 411.77-24.35L411.77-24.35Q411.77-26.5 410.79-28.33 409.82-30.15 408.19-31.28 406.57-32.4 404.57-32.4L404.57-32.4 393.27-32.4ZM425.92-3.1L446.27-3.1 446.27 0 422.42 0 422.42-35.5 445.82-35.5 445.82-32.4 425.92-32.4 425.92-19.6 443.27-19.6 443.27-16.65 425.92-16.65 425.92-3.1ZM456.36-3.1L476.71-3.1 476.71 0 452.86 0 452.86-35.5 476.26-35.5 476.26-32.4 456.36-32.4 456.36-19.6 473.71-19.6 473.71-16.65 456.36-16.65 456.36-3.1ZM509.76 0L486.81-29.05 486.81 0 483.31 0 483.31-35.5 486.21-35.5 509.51-5.9 509.51-35.45 513.01-35.45 513.01 0 509.76 0Z" opacity="1" transform="matrix(1,0,0,1,0,0)" fill="#ffffff" class="wordmark-text-0" data-fill-palette-color="primary" id="text-0"></path></svg></g></svg></g></svg></g></svg></g><g transform="matrix(1,0,0,1,180.0437374961671,0)"><svg viewBox="0 0 37.41012500766575 38.74408468737712" height="38.74408468737712" width="37.41012500766575"><g><svg xmlns="http://www.w3.org/2000/svg" xmlns:xlink="http://www.w3.org/1999/xlink" version="1.1" x="0" y="0" viewBox="4.136311054229736 0.6310997009277344 91.72698211669922 94.99775695800781" enable-background="new 0 0 100 96.261" xml:space="preserve" height="38.74408468737712" width="37.41012500766575" class="icon-icon-0" data-fill-palette-color="accent" id="icon-0"><path fill="#ffffff" d="M80.79 40.53c-0.966-1.639-2.713-2.526-4.496-2.463-0.797 0.027-1.594 0.251-2.329 0.672-2.392 1.389-3.207 4.461-1.818 6.852 0 0 13.034 22.483 13.213 22.814 1.326 2.338-0.466 5.169-3.072 5.178-8.806 0.009-10.615 0-17.583 0l2.534-4.067c1.012-1.63 0.985-3.609 0.089-5.159-0.402-0.689-0.967-1.299-1.684-1.746-2.346-1.461-5.444-0.753-6.904 1.603L51.46 75.876c-0.018 0.018-0.03 0.044-0.044 0.071-0.01 0.018-0.022 0.035-0.031 0.054-0.022 0.026-0.036 0.063-0.054 0.099-0.077 0.134-0.144 0.269-0.202 0.411-0.022 0.054-0.045 0.099-0.066 0.152-0.071 0.18-0.135 0.358-0.188 0.547 0 0 0 0.009-0.005 0.009-0.054 0.206-0.09 0.403-0.121 0.608-0.005 0.036-0.005 0.072-0.009 0.108-0.023 0.17-0.031 0.332-0.036 0.492 0 0.046 0 0.1 0 0.144 0 0.188 0.01 0.376 0.036 0.564 0 0.009 0 0.026 0 0.036 0.027 0.188 0.067 0.385 0.111 0.573 0.015 0.054 0.032 0.107 0.046 0.152 0.044 0.152 0.095 0.296 0.148 0.438 0.018 0.054 0.035 0.099 0.054 0.143 0.08 0.188 0.164 0.368 0.268 0.547 0 0 0.004 0 0.004 0.01l6.984 12.093c1.379 2.392 4.442 3.215 6.843 1.827 2.399-1.379 3.215-4.442 1.835-6.844l-2.605-4.515c8.033 0.009 15.11 0.009 17.86 0.009 10.677 0 16.947-11.197 11.672-20.352L80.79 40.53z" data-fill-palette-color="accent"></path><path fill="#ffffff" d="M44.088 83.794c1.899-0.018 3.547-1.093 4.38-2.661 0.372-0.707 0.582-1.505 0.578-2.355-0.004-2.769-2.252-5.007-5.02-4.998 0 0-25.995 0.045-26.362 0.026-2.688-0.018-4.25-2.982-2.947-5.239 4.394-7.633 5.307-9.2 8.792-15.229l2.253 4.228c0.9 1.693 2.633 2.652 4.425 2.652 0.797 0 1.604-0.188 2.352-0.583 2.441-1.308 3.368-4.335 2.069-6.781l-6.462-12.136c-0.014-0.027-0.027-0.044-0.045-0.071-0.009-0.018-0.014-0.036-0.027-0.054-0.018-0.036-0.041-0.063-0.063-0.099-0.076-0.134-0.161-0.26-0.251-0.376-0.031-0.045-0.067-0.09-0.098-0.135-0.121-0.152-0.246-0.305-0.381-0.439-0.004 0-0.009-0.009-0.009-0.009-0.148-0.143-0.305-0.277-0.466-0.403-0.027-0.027-0.058-0.044-0.089-0.071-0.13-0.099-0.269-0.188-0.408-0.269-0.041-0.027-0.081-0.054-0.125-0.081-0.166-0.089-0.332-0.179-0.506-0.251-0.009 0-0.018-0.009-0.027-0.009-0.18-0.081-0.368-0.143-0.556-0.197-0.054-0.009-0.103-0.019-0.157-0.036-0.152-0.036-0.3-0.072-0.457-0.089-0.045-0.009-0.094-0.018-0.144-0.027-0.202-0.027-0.403-0.036-0.609-0.036-0.004 0-0.004 0-0.004 0H9.758c-2.768 0-5.011 2.239-5.011 5.007 0 2.768 2.243 5.016 5.011 5.016h5.208c-4.021 6.959-7.555 13.077-8.93 15.46-5.343 9.253 1.218 20.271 11.783 20.28L44.088 83.794z" data-fill-palette-color="accent"></path><path fill="#ffffff" d="M25.224 30.328c-0.932 1.657-0.824 3.619 0.121 5.124 0.421 0.671 1.007 1.263 1.747 1.684 2.401 1.38 5.464 0.546 6.844-1.854 0 0 12.952-22.533 13.149-22.842 1.362-2.32 4.707-2.19 6.021 0.072 4.406 7.614 5.303 9.19 8.786 15.228l-4.782-0.17c-1.918-0.063-3.619 0.958-4.516 2.508-0.398 0.69-0.636 1.478-0.668 2.329-0.094 2.768 2.069 5.088 4.837 5.187l13.735 0.466c0.036 0 0.063 0 0.09 0 0.018 0 0.036 0.009 0.063 0.009 0.035 0 0.071-0.009 0.116-0.009 0.152 0 0.304-0.009 0.456-0.027 0.054-0.009 0.107-0.018 0.161-0.018 0.188-0.027 0.377-0.063 0.565-0.117 0.009 0 0.009 0 0.018 0 0.196-0.053 0.395-0.125 0.582-0.197 0.036-0.018 0.072-0.036 0.107-0.045 0.144-0.071 0.296-0.143 0.438-0.215 0.036-0.027 0.081-0.054 0.126-0.072 0.161-0.098 0.322-0.206 0.466-0.313 0.009-0.009 0.018-0.018 0.027-0.018 0.16-0.117 0.304-0.251 0.447-0.386 0.036-0.044 0.072-0.081 0.107-0.116 0.107-0.117 0.215-0.233 0.305-0.349 0.036-0.036 0.063-0.072 0.099-0.117 0.116-0.161 0.233-0.331 0.341-0.511l0 0 6.978-12.092c1.389-2.401 0.564-5.464-1.827-6.848-2.4-1.384-5.464-0.56-6.844 1.836l-2.606 4.51c-4.022-6.96-7.55-13.083-8.929-15.465C56.44-1.754 43.618-1.583 38.329 7.562L25.224 30.328z" data-fill-palette-color="accent"></path></svg></g></svg></g><g></g></svg></g><defs></defs></svg><rect width="395.5199999999999" height="87.94143907739273" fill="none" stroke="none" visibility="hidden"></rect></g></svg></g></svg>